<svg xmlns="http://www.w3.org/2000/svg" width="500" height="auto" version="1.0" viewBox="0 155 375 65"><path fill="#bc1142" fill-opacity=".4" d="M29.989 161.66H6.059v55.488h10.403v-13.805h13.527c14.637 0 19.422-9.363 19.422-20.875 0-11.516-5.274-20.809-19.422-20.809Zm7.074 29.062c-1.18 1.523-3.539 2.219-7.074 2.219H16.462v-20.946h13.527c5.133 0 6.52 1.73 7.004 2.29 1.32 1.663 2.012 4.574 2.012 8.183 0 3.812-.692 6.727-1.942 8.254ZM59.117 161.66H69.52v55.28H59.117Zm0 0"/><path fill="#bc1142" d="M34.037 160.106h-23.93v55.488h10.402v-13.805h13.528c14.636 0 19.421-9.363 19.421-20.875 0-11.515-5.273-20.808-19.421-20.808Zm7.074 29.062c-1.18 1.524-3.54 2.219-7.074 2.219H20.509v-20.945h13.528c5.132 0 6.52 1.73 7.003 2.289 1.32 1.664 2.012 4.574 2.012 8.183 0 3.813-.691 6.727-1.941 8.254ZM63.165 160.106h10.402v55.28H63.165Zm0 0"/><path fill-opacity=".4" d="M129.727 177.542c0-8.808-5.203-15.883-19.422-15.883h-23.86v55.489h23.86c14.637 0 19.422-9.434 19.422-18.172 0-4.094-1.11-7.84-3.746-10.684 2.707-2.773 3.746-6.59 3.746-10.75Zm-32.879-5.547h17.063c3.261 0 5.48 2.844 5.48 5.547 0 2.36-1.871 5.551-5.48 5.551H96.848Zm16.024 34.75H96.848v-13.32h16.024c3.191 0 6.52 2.082 6.52 6.66s-3.47 6.66-6.52 6.66ZM182.786 182.468c0-11.516-5.273-20.809-19.422-20.809h-23.93v55.489h10.403v-13.805h13.527c1.25 0 2.426-.066 3.535-.207l4.997 14.012h10.89l-6.312-17.758c4.578-3.813 6.312-9.988 6.312-16.922Zm-32.95 10.473v-20.946h13.528c5.133 0 6.52 1.73 7.004 2.29 1.32 1.663 2.012 4.574 2.012 8.183 0 3.812-.691 6.727-1.941 8.254-1.18 1.523-3.54 2.219-7.075 2.219ZM192.493 161.66h10.402v55.28h-10.402ZM230.778 161.66h-18.172v55.488h18.172c14.637 0 25.04-12.414 25.04-27.746 0-15.329-10.821-27.743-25.04-27.743Zm0 10.335c8.254 0 14.703 7.63 14.703 17.407 0 4.996-1.523 9.503-4.437 12.765-1.871 2.149-5.133 4.645-10.266 4.645h-7.836v-34.817ZM321.916 184.757h-25.87v10.61h13.734c-2.153 6.867-8.117 11.863-15.887 11.863-9.777 0-16.715-7.977-16.715-17.758 0-9.777 6.938-17.754 16.715-17.754 3.469 0 6.59.969 9.086 2.703l7.77-7.77c-4.715-3.464-10.544-5.546-16.856-5.546-15.676 0-28.367 12.691-28.367 28.367s12.691 28.371 28.367 28.371 28.371-12.695 28.371-28.371c0-1.594-.14-3.192-.348-4.715ZM364.153 171.925v-10.336H331.97v55.559h32.183v-10.336h-21.78v-12.344h12.972v-10.336h-12.973v-12.207Zm0 0"/><path d="M133.775 175.988c0-8.808-5.204-15.882-19.422-15.882h-23.86v55.488h23.86c14.636 0 19.422-9.434 19.422-18.172 0-4.094-1.11-7.84-3.747-10.684 2.708-2.773 3.747-6.59 3.747-10.75Zm-32.88-5.546h17.063c3.262 0 5.48 2.843 5.48 5.546 0 2.36-1.87 5.551-5.48 5.551h-17.062Zm16.024 34.75h-16.023v-13.32h16.023c3.192 0 6.52 2.081 6.52 6.66 0 4.578-3.47 6.66-6.52 6.66ZM186.834 180.914c0-11.515-5.274-20.808-19.422-20.808h-23.93v55.488h10.402v-13.805h13.528c1.25 0 2.426-.066 3.535-.207l4.996 14.012h10.89l-6.312-17.758c4.578-3.812 6.313-9.988 6.313-16.922Zm-32.95 10.473v-20.945h13.528c5.133 0 6.52 1.73 7.004 2.289 1.32 1.664 2.011 4.574 2.011 8.183 0 3.813-.691 6.727-1.941 8.254-1.18 1.524-3.539 2.219-7.074 2.219ZM196.54 160.106h10.403v55.28H196.54ZM234.826 160.106h-18.172v55.488h18.172c14.636 0 25.039-12.414 25.039-27.746 0-15.328-10.82-27.742-25.04-27.742Zm0 10.336c8.254 0 14.703 7.629 14.703 17.406 0 4.996-1.524 9.504-4.438 12.765-1.87 2.149-5.132 4.645-10.265 4.645h-7.836v-34.816ZM325.964 183.203h-25.871v10.61h13.734c-2.152 6.867-8.117 11.863-15.886 11.863-9.778 0-16.715-7.977-16.715-17.758 0-9.777 6.937-17.754 16.715-17.754 3.468 0 6.59.969 9.085 2.703l7.77-7.77c-4.715-3.464-10.543-5.546-16.855-5.546-15.676 0-28.368 12.691-28.368 28.367s12.692 28.371 28.368 28.371c15.675 0 28.37-12.695 28.37-28.37 0-1.595-.14-3.192-.347-4.716ZM368.201 170.371v-10.336h-32.184v55.559h32.184v-10.336H346.42v-12.344h12.972v-10.336H346.42v-12.207Zm0 0"/></svg>